<?xml version="1.0" encoding="UTF-8"?>
<svg id="Layer_2" data-name="Layer 2" xmlns="http://www.w3.org/2000/svg" viewBox="0 0 79.38 60.82">
  <defs>
    <style>
      .cls-1, .cls-2 {
        isolation: isolate;
      }

      .cls-2 {
        font-family: MorgantonDemoRegular, MorgantonDemo;
        font-size: 13.4px;
      }

      .cls-2, .cls-3 {
        fill: #1a4d2e;
      }
    </style>
  </defs>
  <g id="Layer_1-2" data-name="Layer 1-2">
    <g>
      <path class="cls-3" d="M34.1,30.3c.6-3.8,2-7.3,4.7-10.2,1.2-1.3,2.8-2.6,4.4-3.4,1.9-1,3.9-1.7,6-2.1,1-.2,2-.2,3-.1v1.6c-.2,1.7-.6,3.4-1.2,5-.8,2.2-2.1,4.1-3.7,5.8-1.5,1.5-3.1,2.8-5.1,3.7-1,.5-2,.8-3,1.1s-2,.4-3,.6v5.9h22.1V12.8c0-2.7-1.7-5.4-3.6-7.2-2.9-2.7-7-3.5-10.7-2.5-1.1.3-2.1.7-3.2,1.2l-1.6.8-1.1-1.8,1.6-.9c1-.5,2-.9,3-1.2,2.5-.7,5.1-.9,7.6-.3,3,.7,5.5,2.3,7.4,4.7,1.2,1.5,2,3.1,2.5,5,.2.7.3,1.4.3,2.1v27.8h-26.6v-7.9h-.8v7.9h-2.2v-8.1c-3.9-.5-7.4-2-10.3-4.7-1.1-1-2-2-2.8-3.2-1.9-2.7-3-6.2-3-9.5,3.4,0,6.6.4,9.6,2,1.6.8,2.9,1.9,4.1,3.2,2.7,2.8,4.2,6.2,4.7,10.1h.9,0ZM39.5,29.3c2.3-.8,4.3-2.1,5.9-3.8,2.3-2.4,3.8-5.3,4.2-8.7-3.7.6-6.8,2.1-9.3,4.9-2.2,2.4-3.5,5.1-4,8.3,1.1-.2,2.1-.4,3.2-.7ZM30.8,30.1c-.4-3.4-2-6.5-4.5-8.9-1.6-1.6-3.5-2.7-5.7-3.3-1.1-.3-2.3-.5-3.4-.6.8,4.6,3.5,8.2,7.4,10.7,1.9,1.2,4,1.8,6.2,2.1h0Z"/>
      <path class="cls-3" d="M33.2,24.9c-2.8-2.8-4.5-6.4-5-10.2-.6-4.3.5-8.6,2.9-12.1.6-.9,1.3-1.8,2.1-2.6,1.7,1.5,3,3.4,3.9,5.5,1,2.3,1.5,4.7,1.4,7.2,0,4.7-2,9.2-5.3,12.4h0v-.2ZM33.2,21.5c2.4-3.2,3.5-7.3,2.9-11.3-.3-2.5-1.3-4.9-2.9-6.9-2.9,3.8-3.7,8.9-2.4,13.5.5,1.7,1.3,3.3,2.4,4.7h0Z"/>
      <g class="cls-1">
        <g class="cls-1">
          <text class="cls-2" transform="translate(0 53)"><tspan x="0" y="0">G</tspan></text>
        </g>
        <g class="cls-1">
          <text class="cls-2" transform="translate(8.9 53)"><tspan x="0" y="0">r</tspan></text>
        </g>
        <g class="cls-1">
          <text class="cls-2" transform="translate(12.7 53)"><tspan x="0" y="0">e</tspan></text>
        </g>
        <g class="cls-1">
          <text class="cls-2" transform="translate(18.6 53)"><tspan x="0" y="0">en Ga</tspan></text>
        </g>
        <g class="cls-1">
          <text class="cls-2" transform="translate(50.4 53)"><tspan x="0" y="0">r</tspan></text>
        </g>
        <g class="cls-1">
          <text class="cls-2" transform="translate(54.1 53)"><tspan x="0" y="0">dens</tspan></text>
        </g>
      </g>
    </g>
  </g>
</svg>